<?xml version="1.0" standalone="no"?>
<!DOCTYPE svg PUBLIC "-//W3C//DTD SVG 20010904//EN"
 "http://www.w3.org/TR/2001/REC-SVG-20010904/DTD/svg10.dtd">
<svg version="1.0" xmlns="http://www.w3.org/2000/svg"
 width="442.000000pt" height="442.000000pt" viewBox="0 0 442.000000 442.000000"
 preserveAspectRatio="xMidYMid meet">
<metadata>
Created by potrace 1.11, written by Peter Selinger 2001-2013
</metadata>
<g transform="translate(0.000000,442.000000) scale(0.100000,-0.100000)"
fill="#000000" stroke="none">
<path d="M1825 3740 c-22 -4 -54 -15 -72 -24 -17 -9 -62 -19 -100 -22 -47 -4
-85 -15 -124 -35 -31 -16 -64 -29 -73 -29 -9 0 -15 -5 -14 -11 2 -6 -3 -14 -9
-16 -7 -3 -13 3 -13 11 0 14 -5 14 -39 -3 -21 -11 -51 -30 -67 -43 -16 -13
-41 -30 -56 -37 -16 -8 -28 -18 -28 -23 0 -4 -5 -8 -11 -8 -7 0 -30 -15 -53
-33 -23 -18 -60 -45 -83 -61 -23 -15 -49 -39 -58 -53 -10 -15 -22 -22 -31 -19
-14 5 -51 -13 -84 -41 -8 -7 -51 -43 -95 -81 -126 -107 -145 -124 -139 -133 3
-5 -1 -9 -9 -9 -13 0 -62 -49 -125 -125 -18 -22 -20 -30 -10 -36 10 -7 9 -9
-5 -9 -13 0 -16 -6 -12 -22 4 -18 -5 -33 -42 -69 -71 -69 -115 -120 -109 -127
6 -5 94 75 145 132 54 60 175 176 185 177 6 1 15 1 19 0 4 -1 28 12 52 29 24
16 50 30 57 30 12 0 93 53 108 70 20 23 206 119 260 135 25 6 84 24 132 38
117 35 247 43 363 23 50 -8 104 -17 120 -19 17 -2 66 -12 110 -21 44 -9 107
-21 140 -27 33 -7 64 -16 70 -20 5 -5 19 -9 30 -9 12 0 48 -9 81 -21 32 -11
76 -24 97 -30 47 -12 217 -87 238 -105 8 -8 21 -14 27 -14 6 0 33 -14 59 -30
26 -17 66 -35 88 -41 22 -5 57 -19 78 -30 21 -12 45 -18 53 -15 8 3 12 2 9 -4
-6 -10 14 -24 80 -59 29 -15 41 -18 46 -9 6 9 13 8 27 -5 10 -9 23 -17 28 -17
5 0 34 -16 63 -35 30 -19 58 -32 63 -29 4 3 8 0 8 -6 0 -7 6 -10 14 -7 8 3 20
-1 26 -9 7 -8 17 -14 23 -14 5 0 3 8 -6 18 -10 10 -17 22 -17 26 0 10 54 -20
70 -39 7 -8 20 -13 29 -10 9 2 29 -2 45 -10 15 -8 35 -15 42 -15 8 0 24 -10
36 -22 11 -11 32 -22 45 -24 13 -1 31 -8 39 -15 8 -6 16 -10 19 -7 2 2 -25 35
-60 73 -44 48 -60 72 -52 77 19 12 30 9 23 -7 -3 -9 18 -39 59 -80 35 -36 62
-65 60 -65 -3 0 9 -13 27 -29 18 -16 35 -28 37 -26 2 3 -8 30 -23 61 -15 31
-25 59 -22 61 2 3 18 -24 34 -60 30 -65 52 -91 52 -64 0 14 -18 55 -57 130 -8
16 -13 31 -10 34 10 9 25 -6 32 -34 4 -16 22 -59 41 -97 19 -39 34 -75 34 -82
0 -14 27 -27 33 -16 3 4 -13 43 -34 86 -41 84 -45 96 -29 96 6 0 10 -6 10 -13
0 -18 47 -114 60 -122 5 -3 10 -15 10 -25 0 -10 5 -22 11 -25 19 -12 22 4 5
29 -9 14 -16 32 -16 39 0 8 -10 27 -22 43 -13 16 -22 29 -20 29 5 0 -17 56
-38 98 -20 37 -20 37 0 37 11 0 20 -6 20 -13 0 -8 12 -36 26 -63 14 -27 27
-60 29 -74 4 -31 42 -117 55 -125 6 -3 10 3 10 15 0 20 -4 30 -29 79 -13 24
-38 92 -70 191 -37 114 -126 264 -142 239 -6 -10 -11 -10 -23 0 -9 8 -16 18
-16 23 0 6 6 5 15 -2 15 -13 39 -5 30 11 -10 16 4 10 25 -11 11 -11 28 -38 37
-60 10 -22 21 -40 26 -40 4 0 5 -4 2 -10 -3 -5 -2 -10 3 -10 5 0 15 -13 22
-30 7 -16 18 -30 25 -30 8 0 11 -8 9 -17 -3 -10 10 -49 27 -88 18 -38 33 -74
33 -80 1 -5 7 -20 13 -31 7 -12 10 -24 8 -26 -3 -3 5 -27 17 -54 15 -34 23
-44 26 -31 4 19 -18 89 -66 209 -8 19 -8 28 0 30 7 3 3 13 -11 27 -12 12 -20
25 -17 29 3 3 -1 14 -11 24 -15 17 -15 18 6 18 16 0 25 -9 32 -30 13 -35 34
-42 24 -7 -10 32 -45 87 -56 87 -5 0 -18 20 -29 44 -12 24 -29 52 -38 62 -9
11 -28 39 -41 62 -32 60 -150 172 -180 172 -11 0 -8 -5 9 -17 36 -26 69 -66
69 -83 -1 -11 -3 -10 -6 3 -2 9 -8 17 -12 17 -4 0 -23 14 -41 30 -18 17 -36
30 -39 30 -4 0 -17 10 -31 23 -41 37 -91 70 -97 63 -4 -3 2 -13 13 -20 18 -14
18 -14 -8 -12 -15 2 -39 12 -54 22 -15 10 -34 24 -43 29 -9 6 -18 13 -21 16
-14 16 -97 56 -107 52 -7 -2 -36 7 -65 20 -179 84 -316 140 -328 132 -5 -3
-11 -1 -15 5 -3 5 -15 10 -26 10 -10 0 -19 4 -19 8 0 22 -174 83 -305 106 -16
3 -60 12 -96 20 -71 15 -382 20 -454 6z m1175 -280 c0 -5 -4 -10 -9 -10 -6 0
-13 5 -16 10 -3 6 1 10 9 10 9 0 16 -4 16 -10z m-2028 -157 c-11 -16 -35 -36
-54 -47 -32 -18 -31 -17 12 27 51 51 71 61 42 20z m2493 -81 c-3 -3 -11 0 -18
7 -9 10 -8 11 6 5 10 -3 15 -9 12 -12z m33 -24 c14 -14 16 -28 2 -28 -5 0 -14
9 -20 20 -12 22 -1 27 18 8z m174 -115 c16 -24 25 -43 21 -43 -4 0 -3 -4 3 -8
22 -14 84 -126 75 -135 -12 -12 -31 0 -31 20 0 19 -49 107 -108 193 -34 50
-38 59 -17 40 15 -14 40 -44 57 -67z m-148 71 c9 -3 13 -10 10 -16 -3 -5 5
-21 17 -36 13 -14 16 -20 6 -13 -19 15 -62 71 -53 71 2 0 11 -3 20 -6z m-36
-29 c-3 -3 -9 2 -12 12 -6 14 -5 15 5 6 7 -7 10 -15 7 -18z m-30 -50 c-3 -3
-9 2 -12 12 -6 14 -5 15 5 6 7 -7 10 -15 7 -18z m-2788 -30 c-7 -9 -15 -13
-19 -10 -3 3 1 10 9 15 21 14 24 12 10 -5z m2306 -162 c-5 -5 -56 22 -56 30 0
5 13 0 30 -9 16 -10 28 -19 26 -21z m299 7 c3 -5 1 -10 -4 -10 -6 0 -11 5 -11
10 0 6 2 10 4 10 3 0 8 -4 11 -10z m163 -45 c-3 -3 -9 2 -12 12 -6 14 -5 15 5
6 7 -7 10 -15 7 -18z m126 -94 c11 -34 23 -61 28 -61 4 0 8 -5 8 -11 0 -8 -5
-8 -15 1 -8 7 -15 16 -15 21 0 4 -13 31 -30 59 -16 28 -30 58 -30 67 0 34 35
-15 54 -76z"/>
<path d="M3105 3450 c3 -5 11 -10 16 -10 6 0 7 5 4 10 -3 6 -11 10 -16 10 -6
0 -7 -4 -4 -10z"/>
<path d="M3670 3191 c0 -6 8 -16 18 -23 22 -16 102 -127 102 -141 0 -6 8 -20
18 -31 10 -12 24 -37 31 -56 7 -19 17 -44 21 -55 5 -11 11 -28 14 -37 3 -10
10 -18 15 -18 12 0 -13 88 -28 103 -6 6 -11 18 -11 26 0 28 -154 241 -174 241
-3 0 -6 -4 -6 -9z"/>
<path d="M3850 3067 c0 -8 6 -17 13 -20 7 -3 26 -37 41 -76 15 -39 31 -71 36
-71 16 0 3 46 -32 110 -35 63 -58 86 -58 57z"/>
<path d="M3960 3013 c0 -19 11 -43 21 -43 13 0 11 14 -6 36 -8 10 -15 14 -15
7z"/>
<path d="M3992 2930 c0 -14 2 -19 5 -12 2 6 2 18 0 25 -3 6 -5 1 -5 -13z"/>
<path d="M3940 2879 c0 -5 5 -7 10 -4 6 3 10 8 10 11 0 2 -4 4 -10 4 -5 0 -10
-5 -10 -11z"/>
<path d="M3840 2814 c0 -3 6 -18 14 -32 8 -15 19 -38 24 -52 10 -24 11 -24 11
-3 1 26 -29 93 -41 93 -4 0 -8 -3 -8 -6z"/>
<path d="M3892 2790 c0 -14 2 -19 5 -12 2 6 2 18 0 25 -3 6 -5 1 -5 -13z"/>
<path d="M3345 2720 c3 -5 11 -10 16 -10 6 0 7 5 4 10 -3 6 -11 10 -16 10 -6
0 -7 -4 -4 -10z"/>
<path d="M3891 2678 c-1 -16 4 -28 9 -28 12 0 12 8 0 35 -8 18 -9 17 -9 -7z"/>
<path d="M2131 2655 c0 -16 6 -48 14 -70 28 -77 9 -163 -22 -96 l-11 26 -1
-33 c-1 -30 -3 -32 -21 -22 -11 6 -20 21 -20 33 0 12 -4 29 -10 37 -6 10 -9 1
-8 -28 0 -24 -2 -46 -5 -49 -10 -10 -37 6 -43 24 -11 33 -39 83 -46 83 -5 0
-8 -9 -8 -20 0 -11 -4 -20 -10 -20 -5 0 -10 6 -10 14 0 8 -5 18 -12 22 -8 5
-9 2 -5 -9 3 -9 2 -19 -3 -22 -6 -4 -10 -24 -10 -46 0 -32 -3 -39 -20 -39 -15
0 -20 7 -20 24 0 14 -5 28 -11 32 -7 4 -10 -4 -9 -22 4 -53 1 -59 -15 -38 -14
19 -14 19 -15 -1 0 -16 -7 -21 -29 -23 -32 -2 -44 9 -49 48 -2 14 -7 27 -13
28 -5 2 -9 16 -9 30 0 27 -15 61 -23 52 -5 -6 8 -127 17 -160 6 -22 6 -23 -7
-8 -7 10 -19 42 -26 73 -7 30 -17 55 -22 55 -14 0 -11 -52 6 -84 16 -29 21
-86 8 -86 -11 0 -62 83 -98 157 -16 34 -33 62 -36 63 -8 0 8 -74 20 -98 17
-31 41 -102 41 -120 0 -10 -13 -25 -29 -35 l-28 -16 -47 90 c-48 96 -55 94
-32 -6 8 -33 13 -61 11 -63 -1 -2 -12 8 -23 22 -23 30 -32 33 -32 10 0 -10 -8
-6 -25 13 -17 19 -25 23 -25 13 -1 -20 -49 80 -50 103 0 9 -5 17 -11 17 -7 0
-9 -10 -4 -27 4 -16 9 -52 11 -82 2 -30 13 -79 24 -109 12 -30 19 -56 18 -58
-2 -1 -14 14 -27 34 -13 20 -32 49 -43 64 -10 15 -18 32 -18 37 0 22 -24 61
-30 50 -9 -13 28 -118 58 -169 l22 -36 -32 -18 c-31 -19 -31 -19 -50 5 -11 13
-26 38 -33 56 -14 30 -32 49 -40 41 -4 -3 19 -56 47 -111 6 -12 5 -23 -3 -33
-13 -16 -39 -19 -39 -5 0 5 -20 30 -45 56 -32 32 -49 60 -55 88 -19 85 -23 97
-32 97 -6 0 -7 -13 -3 -31 5 -22 4 -29 -4 -25 -18 12 -12 -17 15 -74 15 -30
27 -71 28 -92 1 -20 10 -46 20 -57 18 -19 17 -21 -10 -45 -33 -28 -26 -32 -89
49 -16 21 -35 43 -41 49 -6 6 -19 24 -29 39 -23 35 -30 29 -10 -9 8 -16 15
-33 15 -38 0 -5 7 -17 16 -27 8 -9 17 -28 19 -41 1 -12 6 -31 10 -40 4 -11 3
-18 -5 -18 -19 0 -138 109 -162 149 -39 64 -64 81 -45 31 6 -16 14 -30 17 -30
4 0 17 -24 31 -52 27 -59 27 -59 67 -108 35 -41 73 -118 63 -124 -8 -6 -42 22
-130 107 -63 61 -64 62 -59 30 4 -31 4 -31 -19 -15 -12 10 -23 23 -23 30 0 14
-20 17 -20 3 0 -13 76 -109 122 -155 22 -21 37 -40 34 -43 -2 -3 -29 9 -60 26
-31 17 -58 26 -61 21 -4 -6 -1 -10 5 -10 6 0 16 -5 23 -10 22 -20 129 -80 141
-80 15 0 89 -50 83 -57 -19 -18 -239 59 -259 91 -4 6 -10 7 -15 2 -4 -4 1 -12
12 -19 26 -14 116 -99 111 -104 -2 -2 -37 7 -77 21 -41 13 -83 27 -94 31 -17
6 -16 3 5 -15 14 -11 36 -25 49 -31 13 -5 21 -12 17 -16 -7 -7 -17 -3 -125 51
-70 35 -97 42 -68 18 8 -7 45 -28 83 -48 38 -19 74 -41 79 -47 40 -49 232 -92
376 -84 52 2 105 8 119 12 22 8 21 5 -13 -37 -36 -44 -73 -116 -63 -125 2 -2
12 11 20 29 29 61 131 158 167 158 6 0 -6 -19 -29 -41 -56 -57 -107 -153 -93
-176 10 -17 11 -16 17 4 4 13 11 20 20 16 8 -3 17 3 21 14 11 27 81 109 109
128 34 22 30 14 -22 -47 -50 -58 -64 -84 -94 -172 -21 -63 -27 -132 -10 -121
6 4 8 10 5 15 -3 5 -2 11 3 14 4 2 9 19 10 38 4 52 69 171 123 224 27 27 49
44 49 39 0 -6 -15 -22 -33 -36 -18 -15 -33 -37 -34 -49 -1 -13 -6 -26 -11 -29
-9 -6 -52 -77 -52 -86 0 -16 20 0 36 30 10 19 23 35 27 35 5 0 2 -11 -7 -25
-10 -15 -16 -45 -16 -77 l1 -53 29 82 c16 45 38 92 49 104 l21 22 -10 -34 c-5
-18 -18 -52 -29 -74 -10 -22 -24 -66 -31 -97 -6 -32 -16 -58 -21 -58 -6 0 -3
-7 6 -16 9 -9 18 -14 21 -11 3 2 22 1 42 -5 43 -10 201 -38 220 -38 6 0 12 4
12 8 0 5 -51 17 -112 26 -173 27 -161 22 -154 70 9 56 26 106 36 106 5 0 11
12 15 28 6 28 51 90 58 82 3 -3 1 -27 -3 -55 -5 -27 -9 -70 -8 -95 0 -45 2
-43 23 20 l9 25 7 -25 c7 -28 7 -28 33 61 10 36 29 69 52 93 19 20 32 41 29
46 -5 9 -45 9 -80 0 -26 -6 -37 1 -32 21 5 20 3 21 -41 16 -41 -6 -45 -5 -29
7 9 7 17 16 17 20 0 13 -25 33 -55 43 l-30 10 32 16 c18 10 51 17 75 17 59 1
169 49 210 94 18 19 52 42 76 50 l42 15 0 -38 c0 -57 32 -144 73 -200 25 -35
22 -38 -28 -27 -25 6 -45 14 -45 18 0 5 -6 8 -14 8 -21 0 -179 51 -193 63 -9
7 -13 5 -13 -6 0 -8 10 -17 23 -20 25 -5 107 -34 152 -53 17 -7 44 -15 60 -19
17 -4 46 -12 65 -19 108 -40 154 -46 164 -20 3 8 10 13 15 10 7 -5 31 42 31
60 0 13 -20 0 -25 -16 -3 -11 -13 -20 -21 -20 -12 0 -12 4 2 25 16 24 15 25
-5 25 -29 0 -26 11 11 46 l32 29 -17 -27 c-22 -35 -11 -36 25 -1 30 29 37 18
18 -31 -6 -17 -6 -26 0 -26 6 0 10 5 10 10 0 6 6 10 14 10 8 0 18 14 21 32 6
26 9 29 17 14 5 -9 6 -25 3 -36 -4 -11 -2 -20 4 -20 5 0 12 10 14 23 l4 22 2
-22 c2 -40 21 -24 21 18 0 45 14 45 23 -1 4 -16 11 -30 17 -30 6 0 8 12 5 28
-5 24 -5 25 7 8 25 -36 68 -77 68 -64 0 9 3 9 10 -2 18 -29 23 1 5 33 -16 28
-13 27 22 -12 29 -31 42 -39 47 -30 3 8 4 3 1 -11 -2 -14 -5 -33 -5 -42 0 -10
-4 -18 -10 -18 -5 0 -10 16 -10 35 0 24 -5 35 -15 35 -19 0 -21 -56 -2 -63 6
-3 -21 -6 -60 -6 -73 -1 -73 -1 -74 27 0 15 -4 36 -8 47 -8 19 -8 19 -15 -2
-5 -14 -16 -23 -29 -24 -42 -2 -46 -4 -62 -24 -16 -20 -16 -20 -12 3 7 32 -7
27 -20 -7 -10 -27 -9 -29 19 -35 39 -8 189 -6 295 2 74 7 84 10 107 37 45 51
86 174 86 254 l0 71 33 -7 c17 -3 48 -19 68 -34 19 -15 47 -31 62 -34 15 -4
27 -13 27 -19 0 -20 77 -86 100 -86 29 0 64 -41 79 -92 7 -24 14 -50 17 -59 4
-14 -3 -15 -48 -11 -29 2 -55 6 -57 8 -2 1 6 16 18 32 29 42 26 46 -11 20 -46
-33 -83 -67 -78 -71 3 -2 61 -7 130 -9 69 -3 112 -3 95 1 -28 6 -30 9 -30 56
0 47 1 50 25 47 13 -1 27 -6 30 -10 3 -5 20 -14 37 -21 30 -12 92 -73 113
-110 5 -9 11 -14 14 -11 10 10 -26 69 -71 117 l-46 48 34 6 c19 4 52 16 74 28
l39 21 -41 0 c-52 0 -80 9 -62 21 7 4 -7 10 -37 14 -27 4 -60 11 -74 16 -22 7
-20 8 15 7 81 -2 111 2 95 12 -12 8 -11 10 5 10 20 0 45 17 45 31 0 4 -7 6
-16 5 -25 -2 -43 32 -24 44 12 8 9 10 -13 10 -36 0 -29 11 27 40 25 13 46 27
46 32 0 5 -13 2 -30 -7 -41 -21 -51 -19 -14 4 52 32 49 43 -5 21 -61 -24 -65
-12 -13 35 42 39 36 45 -15 14 -19 -12 -37 -19 -40 -15 -4 3 -17 -1 -30 -9
-27 -18 -50 -11 -30 9 7 7 26 20 42 29 24 13 26 16 10 17 -11 0 -16 4 -10 8
19 14 76 92 67 92 -5 0 -20 -8 -33 -19 -34 -26 -109 -61 -109 -50 0 5 -11 2
-25 -7 -45 -29 -39 -6 10 43 26 26 51 56 57 66 8 16 2 15 -35 -7 -60 -35 -65
-33 -26 12 63 72 79 92 79 103 0 6 -5 7 -12 2 -7 -4 -19 -8 -27 -10 -20 -3
-86 -60 -84 -72 2 -6 -4 -8 -11 -5 -8 3 -32 -7 -55 -21 -40 -27 -65 -27 -54 0
3 8 0 15 -5 15 -6 0 0 11 13 25 34 33 32 55 -2 24 -30 -27 -25 -17 29 61 51
73 48 86 -6 27 -44 -48 -44 -49 -70 -32 -20 13 -24 23 -20 41 8 31 -13 32 -26
2 -13 -33 -12 -7 1 31 16 45 2 52 -16 8 -18 -44 -50 -42 -41 2 16 81 18 104 9
98 -6 -4 -13 -24 -17 -44 -3 -21 -10 -45 -15 -53 -17 -26 -25 -1 -12 40 13 46
14 49 4 53 -4 1 -9 -7 -12 -18 -8 -43 -22 -68 -32 -58 -6 6 -5 21 5 44 23 56
28 79 18 79 -6 0 -13 -12 -17 -27 -9 -36 -49 -76 -72 -71 -15 3 -17 12 -15 51
4 58 -4 60 -18 7 -11 -42 -40 -56 -40 -20 0 11 -7 20 -15 20 -8 0 -15 -6 -15
-12 0 -10 -3 -9 -9 1 -5 7 -11 9 -14 4 -4 -6 -25 -6 -57 1 -48 10 -50 11 -50
43 0 18 -4 33 -10 33 -5 0 -10 -13 -10 -29 0 -33 -9 -38 -55 -33 -28 3 -34 9
-44 42 -6 20 -11 44 -11 53 0 8 -11 39 -25 69 -22 47 -25 50 -24 23z m-214
-177 c-3 -7 -5 -2 -5 12 0 14 2 19 5 13 2 -7 2 -19 0 -25z m363 -53 c-6 -12
-51 -8 -65 6 -7 7 3 9 30 7 22 -2 38 -7 35 -13z m84 0 c41 -18 40 -15 22 -60
-19 -46 -50 -47 -65 -4 -6 18 -11 33 -11 33 0 1 17 1 38 -1 36 -3 33 0 -16 18
-13 5 -20 13 -17 19 8 13 6 13 49 -5z m-314 -42 c-1 -24 -2 -26 -11 -10 -5 9
-7 22 -4 27 10 17 15 11 15 -17z m60 12 c0 -8 0 -18 1 -22 0 -4 -4 -9 -10 -11
-6 -2 -11 8 -11 22 0 14 5 26 10 26 6 0 10 -7 10 -15z m158 9 c16 -5 22 -14
22 -36 0 -28 -2 -30 -27 -23 -33 8 -29 4 -37 38 -7 29 -1 32 42 21z m215 -26
c-6 -7 -13 -25 -17 -40 -3 -16 -13 -28 -21 -28 -17 0 -18 4 -6 28 5 9 12 25
15 35 3 9 13 17 22 17 12 0 14 -4 7 -12z m-670 -31 c-2 -50 -4 -52 -18 -18
-19 43 -19 53 2 49 11 -2 17 -12 16 -31z m726 14 c0 -3 -4 -15 -8 -26 -8 -19
-8 -19 -20 3 -7 12 -9 27 -6 32 6 10 36 2 34 -9z m-129 -11 c0 -11 -4 -20 -9
-20 -5 0 -7 9 -4 20 3 11 7 20 9 20 2 0 4 -9 4 -20z m-288 -42 c3 -17 0 -49
-7 -71 l-12 -41 -6 33 c-12 58 -8 111 7 111 8 0 16 -14 18 -32z m483 5 c-7
-30 -21 -50 -30 -41 -8 8 16 68 27 68 6 0 7 -11 3 -27z m-435 7 c0 -5 -5 -10
-11 -10 -5 0 -7 5 -4 10 3 6 8 10 11 10 2 0 4 -4 4 -10z m104 4 c23 -9 19 -26
-12 -54 -15 -13 -24 -21 -21 -17 4 5 3 24 -1 43 -8 35 -1 41 34 28z m361 -43
c-4 -17 -11 -31 -17 -31 -6 0 -7 8 -3 18 4 9 10 25 12 35 9 29 15 11 8 -22z
m-1055 9 c0 -5 -7 -7 -15 -4 -8 4 -15 8 -15 10 0 2 7 4 15 4 8 0 15 -4 15 -10z
m810 0 c0 -15 -42 -91 -47 -86 -7 7 28 96 38 96 5 0 9 -4 9 -10z m296 -6 c-3
-9 -6 -19 -6 -23 0 -4 -6 -8 -14 -8 -11 0 -12 5 -3 24 11 25 33 32 23 7z
m-246 -2 c0 -5 -7 -17 -15 -28 -15 -19 -20 -8 -9 20 6 17 24 22 24 8z m-263
-39 c-3 -10 -5 -4 -5 12 0 17 2 24 5 18 2 -7 2 -21 0 -30z m529 -1 c-15 -15
-15 -15 -4 10 7 15 15 23 17 17 2 -6 -4 -18 -13 -27z m-245 5 c-10 -9 -11 -8
-5 6 3 10 9 15 12 12 3 -3 0 -11 -7 -18z m322 9 c9 -7 17 -16 17 -19 0 -7 -62
-38 -66 -34 -5 5 19 67 26 67 3 0 13 -7 23 -14z m232 -36 c-10 -11 -22 -20
-28 -20 -5 0 1 9 14 20 31 25 37 25 14 0z m-1481 -40 c7 0 31 -20 54 -45 23
-25 39 -45 36 -45 -25 0 -115 83 -113 105 0 6 3 4 6 -2 2 -7 10 -13 17 -13z
m-213 -3 c-1 -4 -1 -13 -1 -21 0 -14 -47 -19 -55 -5 -3 4 5 15 17 23 22 16 40
17 39 3z m-84 -67 c3 -37 -19 -40 -35 -6 -8 19 -8 26 1 30 25 10 32 5 34 -24z
m1753 -4 c0 -2 -8 -10 -17 -17 -16 -13 -17 -12 -4 4 13 16 21 21 21 13z m-160
-10 c0 -2 -7 -7 -16 -10 -8 -3 -12 -2 -9 4 6 10 25 14 25 6z m-1695 -58 l19
-33 -24 16 c-14 9 -26 24 -28 33 -6 27 13 18 33 -16z m145 2 c0 -5 -4 -10 -9
-10 -6 0 -13 5 -16 10 -3 6 1 10 9 10 9 0 16 -4 16 -10z m-190 -10 c0 -5 9
-18 21 -29 13 -12 18 -24 13 -32 -5 -9 -15 -3 -35 21 -27 31 -30 50 -8 50 5 0
9 -4 9 -10z m1840 -10 c-8 -5 -19 -10 -25 -10 -5 0 -3 5 5 10 8 5 20 10 25 10
6 0 3 -5 -5 -10z m40 -34 c0 -2 -7 -7 -16 -10 -8 -3 -12 -2 -9 4 6 10 25 14
25 6z m45 -36 c8 -12 -6 -17 -68 -23 -55 -5 -55 -1 0 18 46 17 60 18 68 5z
m-1844 -17 c13 -15 12 -15 -8 -4 -24 12 -29 21 -14 21 5 0 15 -7 22 -17z m989
-47 c0 -22 -6 -36 -16 -40 -28 -11 -42 -7 -47 14 -3 11 -11 20 -17 20 -9 0
-11 -14 -6 -49 6 -47 5 -51 -31 -85 -21 -19 -34 -38 -31 -41 4 -4 17 2 29 14
26 24 35 21 20 -7 -12 -22 -54 -54 -86 -66 -17 -6 -17 -4 5 19 31 33 35 68 7
59 -12 -4 -17 -2 -13 4 6 9 -38 10 -79 2 -31 -7 -24 3 15 21 25 12 39 23 32
26 -7 3 -28 -2 -46 -11 -41 -19 -56 -20 -56 -3 0 7 15 18 33 25 35 13 70 40
85 69 7 12 21 17 46 15 26 -2 38 2 46 17 7 14 23 21 53 24 23 2 45 4 50 5 4 1
7 -13 7 -32z m885 14 c-3 -5 -14 -10 -23 -10 -15 0 -15 2 -2 10 20 13 33 13
25 0z m-1965 -67 c0 -2 -13 6 -30 19 -16 12 -30 25 -30 30 0 4 14 -4 30 -19
17 -14 30 -28 30 -30z m1339 48 c12 -7 17 -21 15 -51 -1 -39 -14 -72 -14 -37
0 11 -5 14 -16 10 -8 -3 -26 0 -40 7 -13 8 -27 11 -30 7 -3 -3 18 -17 48 -31
81 -39 136 -75 115 -76 -10 0 -50 18 -89 41 -38 22 -73 38 -76 34 -7 -7 8 -20
59 -48 17 -10 29 -20 26 -23 -3 -4 -18 3 -33 15 -15 11 -36 21 -47 21 -21 0
-21 0 -1 -16 10 -8 13 -13 7 -9 -29 14 -10 -14 32 -49 47 -40 56 -56 30 -56
-8 0 -15 4 -15 9 0 5 -22 33 -49 62 -42 44 -48 56 -39 72 5 11 13 40 17 66 6
42 8 46 33 43 14 -2 29 2 33 7 8 13 12 14 34 2z m-159 -32 c0 -10 -4 -19 -10
-19 -5 0 -10 12 -10 26 0 14 4 23 10 19 6 -3 10 -15 10 -26z m854 -8 c8 -12
-17 -21 -84 -28 -72 -7 -93 13 -23 22 27 4 53 8 58 10 20 7 44 5 49 -4z m-349
-19 c-3 -3 -11 0 -18 7 -9 10 -8 11 6 5 10 -3 15 -9 12 -12z m379 -21 c3 -5
-4 -9 -17 -9 -12 0 -47 -2 -77 -5 l-55 -6 60 13 c76 17 83 18 89 7z m-679 -31
c3 -5 1 -10 -4 -10 -6 0 -11 5 -11 10 0 6 2 10 4 10 3 0 8 -4 11 -10z m385
-22 c0 -12 -6 -9 -26 13 -19 22 -19 22 4 8 12 -8 22 -17 22 -21z m-1250 8 c0
-5 -103 -36 -117 -36 -4 1 8 9 27 20 31 17 90 27 90 16z m-696 -27 c16 -5 41
-9 55 -9 20 0 23 -2 11 -10 -27 -18 -80 -11 -118 16 l-37 25 30 -6 c17 -4 43
-11 59 -16z m1375 -2 c-2 -1 -13 -9 -24 -17 -19 -14 -19 -14 -6 3 7 9 18 17
24 17 6 0 8 -1 6 -3z m176 -77 c14 -15 15 -21 5 -18 -16 3 -27 13 -50 42 -14
18 -14 19 5 9 11 -6 29 -21 40 -33z m667 23 c60 -7 53 -23 -10 -23 -32 0 -55
7 -72 21 l-25 21 30 -7 c17 -3 51 -8 77 -12z m-1642 -183 c0 -5 -5 -10 -11
-10 -5 0 -7 5 -4 10 3 6 8 10 11 10 2 0 4 -4 4 -10z m43 -29 c-7 -27 -43 -60
-43 -39 0 12 35 58 44 58 2 0 2 -9 -1 -19z"/>
<path d="M3895 2630 c3 -5 8 -10 11 -10 2 0 4 5 4 10 0 6 -5 10 -11 10 -5 0
-7 -4 -4 -10z"/>
<path d="M2450 2490 c0 -11 2 -20 4 -20 2 0 6 9 9 20 3 11 1 20 -4 20 -5 0 -9
-9 -9 -20z"/>
<path d="M1030 2196 c0 -2 8 -10 18 -17 15 -13 16 -12 3 4 -13 16 -21 21 -21
13z"/>
<path d="M2804 1570 c-18 -18 -39 -30 -56 -30 -16 0 -28 -4 -28 -10 0 -15 72
-1 93 18 23 21 41 52 29 52 -5 0 -22 -13 -38 -30z"/>
<path d="M2645 1530 c-27 -7 -25 -8 18 -9 26 0 47 4 47 9 0 11 -21 11 -65 0z"/>
<path d="M1629 1507 c-36 -19 -48 -33 -66 -78 -22 -54 -31 -135 -14 -124 5 3
13 20 16 37 9 39 44 122 50 117 2 -2 -3 -33 -10 -69 -16 -74 -19 -130 -7 -130
5 0 14 26 21 58 16 75 59 163 82 169 22 6 24 14 7 31 -17 17 -29 15 -79 -11z"/>
<path d="M1728 1476 c-41 -31 -65 -124 -58 -231 l2 -40 12 50 c6 28 21 66 33
86 12 19 25 54 29 77 4 23 11 45 15 48 10 6 2 24 -9 24 -4 0 -15 -7 -24 -14z"/>
<path d="M1803 1478 c-39 -51 -86 -239 -65 -260 6 -6 12 14 16 49 6 57 26 126
39 139 4 4 7 17 8 28 1 12 5 1 10 -24 7 -34 6 -52 -5 -75 -8 -16 -22 -50 -31
-75 -10 -25 -20 -51 -23 -59 -4 -10 1 -13 20 -9 30 6 29 -1 -9 -67 -45 -80
-16 -59 53 37 41 57 69 112 89 175 31 98 41 86 49 -53 4 -84 11 -135 22 -153
15 -26 15 -26 9 16 -4 32 0 50 14 74 l20 33 -5 -60 c-4 -43 -3 -55 5 -44 6 8
11 27 11 42 0 15 4 29 8 32 10 6 29 89 37 159 5 46 4 48 -18 42 -12 -4 -25
-10 -28 -14 -8 -8 -39 -135 -39 -161 0 -11 -4 -20 -10 -20 -6 0 -10 45 -10
116 l0 116 -32 -7 c-18 -4 -38 -11 -45 -17 -7 -6 -13 -4 -16 4 -4 9 -9 7 -19
-7 -12 -19 -13 -18 -18 14 -5 37 -21 49 -37 29z m250 -120 c-9 -51 -22 -69
-23 -31 0 37 8 63 21 63 5 0 6 -15 2 -32z m-178 5 c-3 -10 -9 -30 -12 -46 -8
-41 -19 -41 -15 1 5 50 9 62 23 62 7 0 8 -7 4 -17z m-63 -145 c-7 -7 -12 -8
-12 -2 0 14 12 26 19 19 2 -3 -1 -11 -7 -17z"/>
<path d="M2732 1478 c3 -7 22 -21 44 -32 51 -24 70 -41 110 -101 30 -44 34
-47 34 -24 0 30 -68 127 -108 151 -32 21 -86 24 -80 6z"/>
<path d="M2631 1464 c11 -13 9 -14 -13 -9 -14 4 -29 2 -32 -4 -4 -6 8 -13 27
-16 34 -7 117 -71 117 -91 0 -16 24 -64 33 -64 13 0 7 44 -14 95 -13 33 -34
59 -59 78 -43 31 -82 38 -59 11z"/>
<path d="M2305 1448 c-2 -7 -6 -24 -8 -38 -3 -19 -5 -17 -6 10 -1 27 -4 32
-11 20 -11 -16 -7 -60 12 -145 11 -52 108 -209 115 -188 3 7 -8 32 -24 55 -16
24 -39 69 -52 101 -20 49 -22 67 -16 127 6 63 1 91 -10 58z"/>
<path d="M2509 1432 c0 -10 -3 -12 -6 -4 -6 14 -33 16 -33 2 0 -5 9 -19 20
-30 10 -10 26 -44 35 -75 9 -30 23 -61 31 -69 8 -8 14 -27 14 -43 0 -15 4 -46
8 -68 l7 -40 5 55 c3 30 2 67 -2 82 -3 15 -2 30 3 33 29 19 -16 144 -58 164
-19 9 -23 8 -24 -7z"/>
<path d="M2141 1421 c-20 -5 -27 -17 -38 -64 -7 -31 -22 -85 -33 -119 -22 -69
-20 -91 4 -32 9 22 20 46 26 54 6 8 13 23 16 33 4 9 10 17 15 17 5 0 9 10 9
23 0 13 4 27 9 33 8 8 25 65 19 63 -2 -1 -14 -4 -27 -8z"/>
<path d="M2240 1422 c0 -6 -6 -9 -14 -6 -24 9 -39 -35 -44 -133 -3 -66 -1 -93
7 -93 7 0 11 27 11 80 0 73 13 130 30 130 4 0 10 -30 13 -67 4 -37 12 -71 18
-77 8 -8 10 -3 5 19 -3 17 -8 57 -11 89 -3 33 -7 61 -10 64 -3 3 -5 0 -5 -6z"/>
<path d="M2372 1423 c1 -5 -2 -22 -6 -39 -9 -41 12 -164 30 -171 8 -3 14 -10
14 -15 0 -16 42 -80 48 -74 3 3 -10 35 -28 72 -32 65 -56 186 -44 219 4 8 1
15 -5 15 -6 0 -10 -3 -9 -7z"/>
<path d="M2405 1335 c3 -44 10 -82 14 -85 4 -3 20 -31 35 -62 14 -32 31 -58
37 -58 6 0 9 3 7 8 -2 4 -14 30 -26 57 -12 28 -26 57 -32 67 -5 9 -12 40 -16
70 -11 89 -26 92 -19 3z"/>
</g>
</svg>
